# xmcd
#
# Track frame offsets: 
#        150
#        11377
#        21337
#        31682
#        43255
#        56860
#        67665
#        79812
#        91215
#        101517
#
# Disc length: 1509 seconds
#
# Revision: 5
# Processed by: cddbd v1.5.2PL0 Copyright (c) Steve Scherf et al.
# Submitted via: ExactAudioCopy v0.99pb3
#
DISCID=7105e30a
DTITLE=Various Artist - The 101 Greatest Country Hits Vol 5:  Country Memori
DYEAR=1900
DGENRE=Country
TTITLE0=Stonewall Jackson - Waterloo
TTITLE1=Hank Locklin - Please Help Me, I'm Falling (In Love With You)
TTITLE2=Faron Young - Hello Walls
TTITLE3=Del Wood - Down Yonder
TTITLE4=Jimmy Dean - Big Bad John
TTITLE5=Ferlin Husky - Wings Of A Dove
TTITLE6=Hank Thompson - The Wild Side Of Life
TTITLE7=Kitty Wells - It Wasn't God Who Made Honky Tonk Angels
TTITLE8=Warner Mack - The Bridge Washed Out
TTITLE9=Henson Cargill - Skip A Rope
EXTD=
EXTT0=
EXTT1=
EXTT2=
EXTT3=
EXTT4=
EXTT5=
EXTT6=
EXTT7=
EXTT8=
EXTT9=
PLAYORDER=
